<svg width="1179" height="602" viewBox="0 0 1179 602" fill="none" xmlns="http://www.w3.org/2000/svg"><path d="M0 554C0 570.802 0 579.202 3.2698 585.62C6.14601 591.265 10.7354 595.854 16.3803 598.73C22.7976 602 31.1984 602 48 602H1118.02C1144.97 602 1158.45 602 1166.31 596.335C1173.16 591.392 1177.62 583.788 1178.57 575.39C1179.67 565.766 1173.07 554.013 1159.88 530.509L930.05 120.979C925.634 113.112 923.427 109.178 920.358 106.172C917.64 103.511 914.44 101.39 910.93 99.9242C906.966 98.2685 902.483 97.7679 893.517 96.7668L53.3264 2.95422C34.8708 0.893555 25.643 -0.13678 18.5 2.82782C12.2267 5.43146 7.02262 10.0869 3.73893 16.0325C0 22.8024 0 32.0875 0 50.6578V554Z" fill="white"/><mask id="mask0_0_1" style="mask-type:alpha" maskUnits="userSpaceOnUse" x="0" y="0" width="1179" height="602"><path d="M0 557C0 570.978 0 577.967 2.28361 583.481C5.32843 590.831 11.1687 596.672 18.5195 599.716C24.0326 602 31.0218 602 45 602H1123.14C1145.55 602 1156.75 602 1163.68 598.026C1172.92 592.728 1178.66 582.927 1178.76 572.274C1178.83 564.285 1173.35 554.516 1162.39 534.977L929.296 119.637C925.619 113.085 923.781 109.809 921.35 107.191C918.108 103.701 914.082 101.033 909.605 99.4073C906.247 98.1882 902.514 97.7714 895.047 96.9377L49.9936 2.58209C34.6422 0.868042 26.9665 0.0109863 20.8682 1.95972C12.7371 4.55804 6.098 10.4972 2.61343 18.2897C0 24.134 0 31.8574 0 47.3042V557Z" fill="white"/></mask><g mask="url(#mask0_0_1)"><g opacity="0.6"><g opacity="0.2"><path opacity="0.25" d="M737.798 539.997C717.48 527.288 699.553 512.269 685.211 494.94C704.333 489.163 722.261 481.076 737.798 471.834C758.714 459.125 776.642 443.529 790.984 425.621C800.545 431.398 811.302 436.019 823.851 439.485C839.986 443.529 859.109 445.839 881.817 445.839C1004.32 445.839 1025.24 379.409 1025.24 281.208L1025.24 40.3272L738.396 40.3272L738.396 212.468C738.396 292.761 722.261 351.682 651.148 370.744C645.77 372.477 639.196 373.633 633.22 374.788C630.83 360.347 630.232 345.328 630.232 330.309L630.232 -89.6447L1134.6 -89.6447L1134.6 330.309C1134.6 461.436 1053.92 576.389 882.415 576.389C823.254 576.389 775.446 562.525 737.798 539.997Z" fill="#000A3B"/></g><g opacity="0.4"><path opacity="0.25" d="M593.182 507.293C627.245 507.293 657.722 502.671 685.211 494.584C704.334 488.808 722.262 480.72 737.799 471.478C758.714 458.77 776.642 443.173 790.984 425.266C804.729 409.092 815.485 390.607 823.852 370.967C838.194 337.463 845.365 300.493 845.365 261.79L845.365 39.9717L738.396 39.9717L738.396 212.112C738.396 292.406 722.262 351.326 651.149 370.389C645.77 372.122 639.197 373.277 633.221 374.432C621.269 376.165 608.122 377.321 593.182 377.321C470.677 377.321 449.761 310.891 449.761 212.69L449.761 39.9717L629.635 39.9717L629.635 -90.0001L341 -90.0001L341 261.79C341 392.34 421.674 507.293 593.182 507.293Z" fill="#000A3B"/></g></g></g></svg>