<svg width="128" height="32" viewBox="0 0 128 32" fill="none" xmlns="http://www.w3.org/2000/svg">
<g clip-path="url(#clip0_865_64)">
<g opacity="0.5">
<path d="M139.675 12.566H138.358C138.07 12.566 137.823 12.7724 137.823 13.1028V14.0111C137.165 12.9789 135.848 12.277 134.285 12.277C131.363 12.277 128.812 14.6305 128.812 18.0163C128.812 21.4847 131.363 23.797 134.244 23.797C135.807 23.797 137.124 23.0537 137.823 22.0628V23.384C137.823 25.366 136.63 26.5634 134.532 26.5634C133.256 26.5634 131.775 26.0266 131.404 24.5402C131.322 24.3337 131.199 24.2511 130.993 24.2511H130.869C130.869 24.2511 129.553 24.6228 129.47 24.6228C129.388 24.664 129.306 24.7053 129.224 24.7879C129.141 24.8705 129.141 24.9944 129.182 25.1182C129.717 27.2653 131.775 28.5866 134.532 28.5866C137.988 28.5866 140.21 26.5634 140.21 23.4666V13.144C140.169 12.7724 139.922 12.566 139.675 12.566ZM134.49 21.5673C132.556 21.5673 131.157 19.9982 131.157 18.0163C131.157 16.0344 132.556 14.4653 134.49 14.4653C136.424 14.4653 137.823 15.9931 137.823 18.0163C137.823 19.957 136.424 21.5673 134.49 21.5673ZM55.7348 18.966C55.7348 21.2782 53.8009 23.7557 49.5627 23.7557C48.1226 23.7557 46.8059 23.4666 45.6537 22.9299C44.5016 22.3931 43.8021 21.6911 43.4318 21.1957C43.2672 20.9892 43.1849 20.7828 43.2261 20.5763C43.2261 20.4111 43.3084 20.246 43.4729 20.1634L44.337 19.4615C44.4605 19.3789 44.5839 19.2963 44.7074 19.2963C44.9131 19.2963 45.0777 19.4202 45.2423 19.6266C46.0241 20.535 47.4231 21.5673 49.645 21.5673C52.0727 21.5673 53.1425 20.2873 53.1425 19.0899C53.1425 17.8924 52.3607 17.1492 50.6325 16.695L47.4231 15.8279C46.1475 15.4976 45.2011 14.9608 44.5839 14.2589C43.9667 13.557 43.6787 12.6899 43.6787 11.6576C43.6787 10.3363 44.2547 9.13889 45.3246 8.31308C46.3944 7.48727 47.8757 7.03308 49.5216 7.03308C51.7435 7.03308 53.7597 7.77631 54.9941 9.0976C55.3233 9.42792 55.3233 9.75824 55.0353 10.0473L54.3769 10.7079C54.2535 10.8318 54.0889 10.9144 53.8832 10.9144C53.7186 10.9144 53.554 10.8318 53.3483 10.7079C52.1138 9.63437 50.8794 9.13889 49.4393 9.13889C47.8757 9.13889 46.1475 9.88211 46.1475 11.4924C46.1475 12.855 47.2585 13.3092 48.3283 13.5982L51.6201 14.5066C54.4181 15.2911 55.7348 16.7363 55.7348 18.966ZM57.9567 23.4253C57.6687 23.4253 57.4218 23.2189 57.4218 22.8886V13.0615C57.4218 12.7724 57.6687 12.566 57.9567 12.566H59.2734C59.5203 12.566 59.7672 12.7724 59.7672 13.0615V13.9699C60.4256 12.9789 61.6188 12.277 63.3059 12.277C66.145 12.277 67.8732 14.1763 67.8732 16.9428V22.9711C67.8732 23.2602 67.6263 23.4666 67.3383 23.4666H66.0216C65.7335 23.4666 65.5278 23.2602 65.5278 22.9711V17.3144C65.5278 15.4976 64.5814 14.3002 62.6887 14.3002C60.8782 14.3002 59.7672 15.5389 59.7672 17.3144V22.9711C59.7672 23.2602 59.5203 23.4666 59.2734 23.4666H57.9567V23.4253ZM155.105 23.4253C154.817 23.4253 154.57 23.2189 154.57 22.8886V13.0615C154.57 12.7724 154.817 12.566 155.105 12.566H156.422C156.669 12.566 156.916 12.7724 156.916 13.0615V13.9699C157.574 12.9789 158.767 12.277 160.454 12.277C163.293 12.277 165.022 14.1763 165.022 16.9428V22.9711C165.022 23.2602 164.775 23.4666 164.487 23.4666H163.17C162.882 23.4666 162.676 23.2602 162.676 22.9711V17.3144C162.676 15.4976 161.73 14.3002 159.837 14.3002C158.027 14.3002 156.916 15.5389 156.916 17.3144V22.9711C156.916 23.2602 156.669 23.4666 156.422 23.4666H155.105V23.4253ZM80.2996 12.566H78.9829C78.6949 12.566 78.448 12.7724 78.448 13.1028V14.0111C77.7897 12.9789 76.4729 12.277 74.9094 12.277C71.9879 12.277 69.4368 14.6305 69.4368 18.0163C69.4368 21.4847 71.9879 23.797 74.8682 23.797C76.4318 23.797 77.7485 23.0537 78.448 22.0628V23.0124C78.448 23.3015 78.6949 23.5079 78.9829 23.5079H80.2996C80.5877 23.5079 80.7934 23.2602 80.7934 23.0124V13.0615C80.7934 12.7724 80.5465 12.566 80.2996 12.566ZM75.1151 21.5673C73.1812 21.5673 71.7822 19.9982 71.7822 18.0163C71.7822 16.0344 73.1812 14.4653 75.1151 14.4653C77.049 14.4653 78.448 15.9931 78.448 18.0163C78.448 19.957 77.049 21.5673 75.1151 21.5673ZM126.796 12.566H125.479C125.191 12.566 124.944 12.7724 124.944 13.1028V14.0111C124.286 12.9789 122.969 12.277 121.406 12.277C118.484 12.277 115.933 14.6305 115.933 18.0163C115.933 21.4847 118.484 23.797 121.364 23.797C122.928 23.797 124.245 23.0537 124.944 22.0628V23.0124C124.944 23.3015 125.191 23.5079 125.479 23.5079H126.796C127.084 23.5079 127.29 23.2602 127.29 23.0124V13.0615C127.29 12.7724 127.043 12.566 126.796 12.566ZM121.611 21.5673C119.677 21.5673 118.278 19.9982 118.278 18.0163C118.278 16.0344 119.677 14.4653 121.611 14.4653C123.545 14.4653 124.944 15.9931 124.944 18.0163C124.944 19.957 123.545 21.5673 121.611 21.5673ZM83.5914 28.2563H84.9081C85.1961 28.2563 85.443 28.0499 85.443 27.7195V22.0215C86.1014 23.0537 87.4181 23.7557 88.9817 23.7557C91.9031 23.7557 94.4542 21.4021 94.4542 18.0163C94.4542 14.5479 91.9031 12.2357 89.0228 12.2357C87.4592 12.2357 86.1425 12.9789 85.443 13.9699V13.0202C85.443 12.7311 85.1961 12.5247 84.9081 12.5247H83.5914C83.3034 12.5247 83.0976 12.7724 83.0976 13.0202V27.7195C83.0976 28.0499 83.3445 28.2563 83.5914 28.2563ZM88.7759 14.424C90.7099 14.424 92.1089 15.9931 92.1089 17.975C92.1089 19.957 90.7099 21.526 88.7759 21.526C86.842 21.526 85.443 19.9982 85.443 17.975C85.443 16.0344 86.842 14.424 88.7759 14.424ZM106.716 7.3634H105.399C105.111 7.3634 104.864 7.56985 104.864 7.90018V13.9699C104.206 12.9376 102.889 12.2357 101.326 12.2357C98.4044 12.2357 95.8532 14.5892 95.8532 17.975C95.8532 21.4434 98.4044 23.7557 101.285 23.7557C102.848 23.7557 104.165 23.0124 104.864 22.0215V22.9711C104.864 23.2602 105.111 23.4666 105.399 23.4666H106.716C107.004 23.4666 107.21 23.2189 107.21 22.9711V7.90018C107.21 7.61114 107.004 7.3634 106.716 7.3634ZM101.573 21.5673C99.6388 21.5673 98.2398 19.9982 98.2398 18.0163C98.2398 16.0344 99.6388 14.4653 101.573 14.4653C103.507 14.4653 104.906 15.9931 104.906 18.0163C104.906 19.957 103.507 21.5673 101.573 21.5673ZM147.369 12.2357C144.201 12.2357 141.691 14.7131 141.691 17.975C141.691 21.237 144.242 23.7144 147.369 23.7144C150.538 23.7144 153.048 21.237 153.048 17.975C153.048 14.7544 150.538 12.2357 147.369 12.2357ZM147.369 21.526C145.436 21.526 144.037 19.957 144.037 17.975C144.037 15.9931 145.436 14.424 147.369 14.424C149.303 14.424 150.702 15.9518 150.702 17.975C150.661 19.957 149.303 21.526 147.369 21.526ZM115.028 12.4834C115.234 12.4834 115.48 12.6073 115.48 12.9376V14.3415C115.48 14.6718 115.234 14.7957 115.028 14.7957H114.575C113.012 14.7957 111.942 15.6628 111.942 17.975V23.0124C111.942 23.2602 111.736 23.384 111.53 23.384H110.008C109.761 23.384 109.596 23.2189 109.596 22.9711V12.9789C109.596 12.7311 109.761 12.5247 110.008 12.5247H111.448C111.654 12.5247 111.859 12.6899 111.859 12.9376V14.0524C112.271 13.3505 113.012 12.4834 115.028 12.4834ZM180.616 13.8873C180.74 14.0111 180.74 14.1763 180.575 14.3415L180.411 14.5066C180.246 14.6718 180.081 14.6718 179.917 14.5479C179.176 14.0111 178.312 13.4744 176.831 13.4744C174.979 13.4744 173.992 14.3828 173.992 15.4976C173.992 16.406 174.65 17.0666 175.926 17.3144L178.024 17.686C180.246 18.0989 181.11 19.0073 181.11 20.5763C181.11 21.8976 179.876 23.6731 176.995 23.6731C174.938 23.6731 173.457 22.9299 172.675 21.9802C172.551 21.8563 172.551 21.6499 172.716 21.4847L172.963 21.2782C173.128 21.1544 173.292 21.1544 173.498 21.3608C174.362 22.2692 175.473 22.806 176.995 22.806C178.97 22.806 180.04 21.7324 180.04 20.6176C180.04 19.5028 179.3 18.9247 177.736 18.5944L175.802 18.2228C173.868 17.8511 172.963 16.984 172.963 15.5389C172.963 13.7221 174.691 12.6073 176.831 12.6073C178.436 12.6073 179.752 13.144 180.616 13.8873ZM184.073 13.8047H182.386C182.221 13.8047 182.056 13.6395 182.056 13.4744V13.3092C182.056 13.144 182.221 12.9789 182.386 12.9789H184.073V9.30405C184.073 9.13889 184.237 8.97373 184.402 8.97373H184.731C184.896 8.97373 185.06 9.13889 185.06 9.30405V12.9789H188.558C188.722 12.9789 188.887 13.144 188.887 13.3092V13.4744C188.887 13.6395 188.722 13.8047 188.558 13.8047H185.06V20.535C185.06 21.8563 185.677 22.7234 186.912 22.7234C187.406 22.7234 187.899 22.5995 188.393 22.3105C188.64 22.1866 188.805 22.1453 188.928 22.3518L189.051 22.5995C189.134 22.7234 189.134 22.8886 188.969 22.9711C188.517 23.3015 187.776 23.5905 186.747 23.5905C185.348 23.5905 183.949 22.7234 183.949 20.6589V13.8047H184.073ZM195.429 12.6486C197.363 12.6486 199.009 13.7221 199.709 15.2499V13.3092C199.709 13.144 199.873 12.9789 200.038 12.9789H200.367C200.532 12.9789 200.696 13.144 200.696 13.3092V23.1363C200.696 23.3015 200.532 23.4666 200.367 23.4666H200.038C199.873 23.4666 199.709 23.3015 199.709 23.1363V21.1957C198.968 22.6821 197.404 23.797 195.429 23.797C192.508 23.797 190.162 21.4847 190.162 18.3053C190.121 15.0021 192.467 12.6486 195.429 12.6486ZM195.429 22.7647C197.939 22.7647 199.709 20.7415 199.709 18.1815C199.709 15.5802 197.939 13.557 195.429 13.557C192.919 13.557 191.15 15.5802 191.15 18.1815C191.15 20.7828 192.919 22.7647 195.429 22.7647ZM208.596 12.6486C210.53 12.6486 212.176 13.7221 212.876 15.2499V7.61115C212.876 7.44598 213.04 7.28082 213.205 7.28082H213.534C213.699 7.28082 213.863 7.44598 213.863 7.61115V23.0537C213.863 23.2189 213.699 23.384 213.534 23.384H213.205C213.04 23.384 212.876 23.2189 212.876 23.0537V21.1131C212.135 22.5995 210.571 23.7144 208.596 23.7144C205.675 23.7144 203.33 21.4021 203.33 18.2228C203.33 15.0021 205.675 12.6486 208.596 12.6486ZM208.638 22.7647C211.148 22.7647 212.917 20.7415 212.917 18.1815C212.917 15.5802 211.148 13.557 208.638 13.557C206.128 13.557 204.358 15.5802 204.358 18.1815C204.358 20.7828 206.128 22.7647 208.638 22.7647ZM216.949 9.01502C216.949 8.56082 217.361 8.14792 217.813 8.14792C218.266 8.14792 218.677 8.56082 218.677 9.01502C218.677 9.5105 218.266 9.88211 217.813 9.88211C217.361 9.88211 216.949 9.5105 216.949 9.01502ZM217.649 23.4253C217.484 23.4253 217.32 23.2602 217.32 23.095V13.2679C217.32 13.1028 217.484 12.9376 217.649 12.9376H217.978C218.143 12.9376 218.307 13.1028 218.307 13.2679V23.095C218.307 23.2602 218.143 23.4253 217.978 23.4253H217.649ZM222.586 18.9247C222.586 21.3608 223.903 22.806 226.29 22.806C228.676 22.806 230.116 21.1957 230.116 18.9247V13.2679C230.116 13.1028 230.281 12.9376 230.446 12.9376H230.775C230.939 12.9376 231.104 13.1028 231.104 13.2679V23.095C231.104 23.2602 230.939 23.4253 230.775 23.4253H230.446C230.281 23.4253 230.116 23.2602 230.116 23.095V21.3608C229.499 22.7647 228.018 23.7557 226.084 23.7557C223.245 23.7557 221.558 21.8976 221.558 19.1724V13.2679C221.558 13.1028 221.722 12.9376 221.887 12.9376H222.216C222.381 12.9376 222.545 13.1028 222.545 13.2679V18.9247H222.586ZM235.548 23.095C235.548 23.2602 235.383 23.4253 235.219 23.4253H234.889C234.725 23.4253 234.56 23.2602 234.56 23.095V13.2679C234.56 13.1028 234.725 12.9376 234.889 12.9376H235.219C235.383 12.9376 235.548 13.1028 235.548 13.2679V15.0021C236.165 13.5982 237.605 12.6486 239.416 12.6486C241.35 12.6486 242.79 13.7221 243.283 15.3324C244.024 13.557 245.547 12.6486 247.439 12.6486C250.114 12.6486 251.719 14.4653 251.719 17.2318V23.095C251.719 23.2602 251.554 23.4253 251.389 23.4253H251.06C250.896 23.4253 250.731 23.2602 250.731 23.095V17.397C250.731 15.126 249.579 13.557 247.316 13.557C245.053 13.557 243.654 15.1673 243.654 17.397V23.095C243.654 23.2602 243.489 23.4253 243.325 23.4253H242.995C242.831 23.4253 242.666 23.2602 242.666 23.095V17.397C242.666 15.126 241.514 13.557 239.251 13.557C236.988 13.557 235.589 15.1673 235.589 17.397V23.095H235.548Z" fill="white"/>
<path d="M16.1924 0.426636H15.7398C11.5839 0.591797 6.89314 3.27567 5.94676 7.52857C5.90561 7.69373 5.69987 7.69373 5.65873 7.52857C5.45299 6.49631 5.49414 5.38147 5.78217 4.4318C4.91808 5.21631 4.13628 6.1247 3.43678 7.11567C3.1076 7.65244 2.81957 8.23051 2.61384 8.84986C2.03778 10.6666 2.24351 12.855 3.51907 14.3415C4.71234 15.7453 6.60511 16.2408 8.12755 17.1905C9.65 18.0989 10.9667 19.3376 11.5839 21.0718C12.2423 22.8886 12.1188 24.9531 11.4193 26.7286C11.3782 26.8937 11.1313 26.8524 11.1313 26.646C11.2959 24.0447 9.97917 21.6086 7.55149 20.4524C6.27593 19.8744 4.83578 19.6266 3.56022 19.0073C2.4081 18.4705 0.926805 17.397 0.721069 15.9931C0.721069 24.4989 7.63379 31.4357 16.1924 31.4357C24.7099 31.4357 31.6637 24.4989 31.6637 15.9105C31.6637 7.32212 24.7099 0.426636 16.1924 0.426636ZM27.4667 24.5402C26.3146 26.0266 24.8744 27.3066 23.2697 28.2563C23.2697 28.2563 23.2697 28.215 23.3108 28.215C22.241 28.8344 21.0889 29.3711 19.8545 29.7015C20.8009 28.917 23.8869 26.8937 23.8869 21.3195C23.8869 17.1905 21.2946 14.4241 18.3732 13.0615C15.0403 11.4924 11.4605 10.6666 11.4605 6.45502C11.4605 4.22535 13.2298 1.83051 15.9867 1.78922C16.1512 1.74793 16.357 1.74793 16.5216 1.74793H16.6862C20.3483 1.8718 23.8046 3.39954 26.3557 6.08341C28.948 8.76728 30.347 12.277 30.347 15.9931V16.0757C30.347 17.8099 30.0178 19.5028 29.4418 21.0718V21.1131C29.4006 21.237 29.3183 21.4021 29.2772 21.526C29.236 21.6086 29.1949 21.6912 29.1949 21.7324C29.1949 21.7737 29.1537 21.7737 29.1537 21.815C28.7011 22.7234 28.1251 23.6731 27.4667 24.5402Z" fill="white"/>
</g>
</g>
<defs>
<clipPath id="clip0_865_64">
<rect width="165" height="32" fill="white" transform="translate(0.126709)"/>
</clipPath>
</defs>
</svg>
