<svg width="173" height="32" viewBox="0 0 173 32" fill="none" xmlns="http://www.w3.org/2000/svg">
<g opacity="0.5" clip-path="url(#clip0_865_53)">
<path fill-rule="evenodd" clip-rule="evenodd" d="M59.0645 16.049C54.204 17.5449 53.2223 26.6252 54.4905 25.8353C56.5182 24.5736 58.1699 21.4401 59.0645 16.049ZM31.3573 19.7643C35.2001 19.3874 35.8081 16.6177 35.7961 15.137C33.9155 14.9409 32.0328 17.3543 31.3562 19.7643M23.0288 14.3972C26.9501 7.38927 26.7354 2.25315 26.2211 2.06901C24.8113 4.23721 23.0517 11.8684 23.0288 14.3972ZM62.7983 29.7915C62.807 29.9821 62.8223 30.4223 62.3233 30.5639C61.857 30.6958 60.0821 30.9693 59.1429 30.9562C58.5404 30.9485 58.0305 28.3336 58.2734 24.6368C55.53 29.0309 51.6076 28.9056 51.2132 23.7347C49.325 26.2025 47.0903 28.0536 44.4689 27.1144C43.5733 26.7952 41.4596 26.0739 41.0728 22.7715L41.0695 22.7671C40.7971 23.045 40.4833 23.3424 40.1216 23.6606C36.8039 27.499 32.0252 28.6594 29.8995 27.2179C28.8753 26.5239 28.2542 25.5488 27.9078 24.4799C27.3379 25.1445 26.1841 26.136 25.4083 26.6023C23.4722 27.7682 21.7856 27.4032 20.1033 25.9682C15.9947 22.4425 19.0922 1.43925 24.6152 0.660228C26.6635 0.334453 28.2074 1.01978 28.0483 4.29496C27.789 9.64137 25.6143 13.2194 23.0364 17.6441C22.6551 21.0293 22.7498 24.5224 23.6585 25.2862C24.0878 25.6457 25.8289 24.2674 27.6408 21.1274C28.2183 17.5689 31.6209 13.2129 35.4572 13.1868H35.4583L35.4921 13.1878C35.5139 13.1878 35.5346 13.1878 35.5542 13.1911C36.7963 13.2903 37.9763 15.441 38.0798 16.8182C38.2824 19.529 35.8527 22.8957 31.0958 21.658C31.1404 23.2433 31.9674 24.4657 34.0169 24.3753C36.4771 24.2664 39.0832 21.695 41.2111 19.0954L41.3016 18.7631C41.7101 16.4794 42.5099 14.1935 43.4698 13.6226C43.9274 13.3393 44.3229 13.5278 44.896 13.5278C46.2797 13.5278 47.6155 14.8538 47.0718 15.9422C46.8169 19.3961 42.3268 33.2235 51.6043 19.4527C52.3387 16.6526 55.0658 12.6213 59.2322 12.1898L59.6005 12.1495C59.984 9.19465 60.264 5.04675 61.3416 1.31723C61.5323 0.769183 61.7992 0.545825 62.5336 0.820391C65.5985 -0.181992 66.1727 0.67875 65.9798 1.89904C64.1069 13.7424 62.6698 27.1537 62.7983 29.7915ZM45.9125 10.8115C47.305 11.0349 48.7257 9.4398 48.7148 8.78825C48.7029 8.10075 47.6416 6.75515 46.794 6.75515C45.9932 6.75515 43.935 7.25199 44.0015 8.51259C44.0036 8.55945 44.4983 10.8115 45.9125 10.8115ZM167.271 15.794C168.701 13.2292 171.305 6.0415 170.207 3.35577C168.662 4.28406 167.258 13.0222 167.271 15.794ZM153.844 20.0367C157.687 19.6597 158.296 16.8912 158.283 15.4094C156.402 15.2133 154.52 17.6267 153.844 20.0367ZM119.229 20.0367C123.072 19.6597 123.68 16.8912 123.668 15.4094C121.788 15.2133 119.904 17.6267 119.228 20.0367M169.862 29.3153C170.014 29.6237 169.928 29.8187 169.711 29.9266C169.162 30.2011 168.014 30.4648 167.734 30.5204C167.165 30.6326 166.96 30.5672 166.657 30.1259C165.971 29.1236 164.882 27.3759 164.218 23.4394C164.033 23.6333 163.836 23.824 163.638 24.0114C163.516 24.136 163.39 24.257 163.26 24.3742C158.595 28.5254 154.351 28.9906 152.226 27.5492C150.736 26.5392 150.212 24.8907 150.078 23.2542C149.16 24.2086 148.245 24.7523 147.39 25.3777C146.823 28.0939 144.909 28.5962 143.638 29.1486C142.932 29.4308 141.919 29.7588 140.994 29.7588C139.928 29.7588 139.883 29.4254 139.445 28.5232C139.013 27.6341 139.596 27.2147 140.054 26.9554C142.749 25.7351 143.176 25.3668 143.365 23.6061C143.419 22.0023 143.517 19.7175 143.269 18.0875C140.56 22.6963 136.478 28.8283 132.117 27.2659C131.263 26.9619 129.3 26.2918 128.785 23.3653L128.774 23.3577C128.649 23.5037 128.52 23.6497 128.381 23.7978C124.311 28.1604 119.896 28.9318 117.771 27.4914C116.055 26.3267 115.458 24.3764 115.426 22.5122C115.361 18.8295 119.081 13.4875 123.329 13.4591H123.33L123.363 13.4613C123.385 13.4613 123.407 13.4613 123.426 13.4635C124.668 13.5626 125.848 15.7145 125.952 17.0906C126.154 19.8014 123.725 23.1692 118.968 21.9315C119.011 23.5157 119.839 24.7392 121.889 24.6488C124.027 24.554 126.454 22.6386 128.876 19.359C129.256 16.9348 130.096 14.3831 131.118 13.7751C131.576 13.4918 131.972 13.6803 132.546 13.6803C133.929 13.6803 135.265 15.0063 134.72 16.0948C134.463 19.5976 130.085 33.059 138.976 20.0149C142.353 14.3112 143.26 11.9272 144.716 11.9272C145.426 11.9272 146.638 12.7204 146.681 13.3371C146.71 13.7337 146.334 14.0856 146.344 14.2175C146.539 15.4181 147.022 20.9912 147.055 22.5144C148.271 21.5523 149.53 20.6109 150.679 19.42L150.698 19.4386C151.94 16.4183 154.796 13.4809 157.944 13.4591H157.945L157.979 13.4613C158.001 13.4613 158.021 13.4613 158.041 13.4635C159.283 13.5626 160.463 15.7145 160.567 17.0906C160.769 19.8014 158.34 23.1692 153.583 21.9315C153.627 23.5157 154.454 24.7392 156.504 24.6488C158.38 24.566 160.647 23.6508 163.775 20.2187C163.374 15.2068 164.08 9.04211 165.617 5.64382C166.389 3.93868 167.843 2.01889 169.545 1.7367C171.21 1.45995 171.565 2.25641 171.852 3.60636C172.976 9.0541 170.246 15.3964 167.37 19.6325C167.649 22.8412 168.298 26.1916 169.86 29.3153M19.9279 27.2343C16.4762 24.882 11.9252 20.9618 9.29394 16.244L9.34406 16.1797C12.4318 11.791 15.5436 8.30558 18.5834 5.13064C18.9223 4.77545 18.4516 4.49979 18.0855 4.46275C16.2245 4.27099 14.6643 4.90075 13.9202 5.44116C11.3172 7.33153 8.15645 11.5688 7.23796 12.6496C7.67378 7.20405 8.22291 2.37735 8.70558 1.11021C8.83633 0.764824 8.72955 0.445587 8.18805 0.117633C7.58553 -0.249545 4.6078 0.373677 3.31124 0.932614C2.90048 1.10912 2.78498 1.43816 2.7207 1.60922C1.09183 5.98593 -0.45315 19.6641 0.176608 28.9525C0.329145 31.1926 1.12016 31.4552 4.37136 31.8997C5.1602 32.0087 5.87058 32.0163 6.34018 31.7276C6.54719 31.6001 6.59077 31.3244 6.55264 31.0847C6.34998 29.7991 6.43824 25.698 6.68992 20.9127C9.8714 25.9846 16.1831 27.9044 19.0617 28.3184C19.1908 28.3405 19.3234 28.3268 19.4452 28.2788C19.567 28.2307 19.6733 28.1502 19.7525 28.046C19.8669 27.8913 19.958 27.7206 20.0227 27.5394C20.0432 27.4847 20.0447 27.4247 20.0272 27.369C20.0096 27.3133 19.9739 27.2651 19.9257 27.2321M68.9575 19.7643C72.8015 19.3874 73.4094 16.6177 73.3974 15.137C71.5169 14.9409 69.6331 17.3543 68.9575 19.7643ZM88.759 13.3033C89.0074 13.9418 88.8995 14.0987 88.5487 14.4593C85.1253 17.9731 84.3692 18.9537 83.5346 24.931C83.2644 26.781 83.2459 26.7636 83.1761 28.3053C83.0541 29.3959 81.204 29.9135 80.5296 29.7718C79.0043 29.4493 79.1579 28.9089 79.1622 28.3478C79.2058 26.355 79.2908 24.1421 79.4368 21.9631C79.4322 21.9396 79.4268 21.9164 79.4205 21.8933C79.0664 22.4163 78.6349 22.9643 78.1119 23.5244C74.0403 27.8869 69.6254 28.6583 67.5008 27.2179C65.7848 26.0532 65.1877 24.104 65.155 22.2387C65.0907 18.556 68.8105 13.2151 73.0586 13.1857H73.0597L73.0935 13.1878C73.1153 13.1878 73.136 13.1878 73.1556 13.19C74.3977 13.2903 75.5776 15.441 75.6811 16.8182C75.8838 19.5279 73.4541 22.8957 68.6971 21.658C68.7418 23.2422 69.5688 24.4657 71.6182 24.3753C74.0545 24.2674 76.8666 21.7942 79.6209 17.6321C79.6972 17.4992 79.7811 17.3673 79.877 17.241C80.1167 15.3342 80.4272 13.6346 80.8271 12.3761C80.9556 11.9719 81.143 11.4958 81.8316 11.5688C82.4657 10.6394 83.1118 10.7462 83.4747 10.8344C84.9303 11.207 83.8495 13.4962 83.7362 16.4292C84.7374 15.1447 88.1728 11.7932 88.759 13.3033ZM134.193 11.3487C135.325 11.3487 136.402 10.4487 136.339 9.42672C136.27 8.27725 136.034 7.29884 134.798 7.29884C133.996 7.29884 131.542 8.03537 131.61 9.14017C131.612 9.18049 132.318 11.3487 134.193 11.3487ZM116.013 14.7731C112.977 17.8903 111.094 19.4408 110.652 29.2608C110.53 30.3526 108.68 30.869 108.006 30.7274C106.448 30.3983 106.626 29.8743 106.644 29.0713L106.65 28.7673C100.223 27.7159 96.7573 24.3415 95.6329 22.2877C95.3856 25.8222 95.3714 28.8893 95.7528 30.8864C95.8312 31.3005 95.3464 31.6055 94.9716 31.6415C93.1586 31.8191 92.045 31.514 91.2551 31.2438C90.7114 31.0586 90.2473 30.784 89.9836 30.0726C89.3223 28.2977 90.8694 9.24913 92.3545 4.51831C92.8317 2.99513 92.9668 2.14092 94.0651 2.12785C94.3364 2.12458 94.6774 2.2477 94.9476 2.29128C95.22 1.97858 96.0197 1.73234 96.5852 1.81624C96.9164 1.86527 98.274 2.28801 98.2032 2.69986C97.5137 6.69688 96.9114 10.7085 96.3967 14.7317L96.473 14.6337C99.5128 11.4522 103.42 6.01753 107.481 7.38927C108.518 7.74011 104.408 10.3474 98.6553 17.9383L98.6314 17.9503C100.987 22.9589 103.711 24.8122 106.705 26.9728C106.881 21.8802 107.32 15.7515 108.292 12.691C108.421 12.2868 108.608 11.8107 109.297 11.8837C109.931 10.9543 110.577 11.061 110.939 11.1493C112.393 11.5208 111.316 13.7871 111.2 16.743C112.203 15.4574 115.637 12.1092 116.224 13.6182C116.473 14.2556 116.365 14.4136 116.014 14.7731" fill="white"/>
</g>
<defs>
<clipPath id="clip0_865_53">
<rect width="172.127" height="32" fill="white"/>
</clipPath>
</defs>
</svg>
