<svg width="228" height="32" viewBox="0 0 228 32" fill="none" xmlns="http://www.w3.org/2000/svg">
<g opacity="0.5" clip-path="url(#clip0_865_55)">
<path d="M78.3588 30.2068C78.3588 30.7029 78.1162 30.9845 77.6267 31.0518H71.4114C70.7856 31.0518 70.4748 30.7617 70.4748 30.1857V20.9662H61.2839C61.0114 20.9662 60.7985 20.861 60.6411 20.655C60.4835 20.449 60.4069 20.2304 60.4069 19.9991V15.1897C60.4069 14.8827 60.4963 14.6558 60.6709 14.5169C60.8454 14.3782 61.0667 14.3068 61.3222 14.3068H70.4748V8.06784H58.0826C57.7718 8.06784 57.5334 7.96273 57.3673 7.75674C57.2056 7.55073 57.1246 7.33212 57.1246 7.1051V2.11899C57.1246 1.8247 57.2013 1.58928 57.3589 1.41691C57.5163 1.24454 57.7505 1.15625 58.0612 1.15625H77.5713C77.7884 1.16886 77.9757 1.25714 78.1333 1.41691C78.2907 1.57666 78.3674 1.79948 78.3674 2.08116V30.2068H78.3588Z" fill="white"/>
<path d="M53.5675 30.2068C53.5675 30.7029 53.3249 30.9845 52.8353 31.0518H46.62C45.9943 31.0518 45.6834 30.7617 45.6834 30.1857V20.9662H36.4882C36.2157 20.9662 36.0029 20.861 35.8454 20.655C35.6878 20.449 35.6113 20.2304 35.6113 19.9991V15.1897C35.6113 14.8827 35.7006 14.6558 35.8752 14.5169C36.0497 14.3782 36.271 14.3068 36.5265 14.3068H45.6792V8.06784H33.2869C32.9761 8.06784 32.7377 7.96273 32.5717 7.75674C32.41 7.55073 32.3291 7.33212 32.3291 7.1051V2.11899C32.3291 1.8247 32.4057 1.58928 32.5632 1.41691C32.7206 1.24454 32.9549 1.15625 33.2656 1.15625H52.7757C52.9928 1.16886 53.1801 1.25714 53.3376 1.41691C53.4952 1.57666 53.5718 1.79948 53.5718 2.08116V30.2068H53.5675Z" fill="white"/>
<path d="M83.002 2.08567C83.002 1.804 83.0786 1.58118 83.2361 1.41302C83.3936 1.24485 83.615 1.16077 83.9001 1.16077H97.4334C98.6296 1.16077 99.7577 1.38359 100.818 1.83343C101.878 2.28327 102.806 2.90128 103.602 3.68744C104.398 4.47362 105.024 5.39013 105.488 6.44536C105.947 7.5006 106.182 8.63151 106.182 9.83809C106.182 10.8429 106.02 11.7804 105.705 12.6464C105.386 13.5125 104.934 14.286 104.351 14.9713C105.33 15.8583 106.105 16.9094 106.675 18.1328C107.246 19.352 107.531 20.6511 107.531 22.0175C107.531 23.2409 107.293 24.3969 106.816 25.4901C106.339 26.5831 105.696 27.5417 104.887 28.3699C104.079 29.1939 103.134 29.8497 102.052 30.3332C100.971 30.8167 99.8343 31.0564 98.6381 31.0564H83.9001C83.6277 31.0564 83.4107 30.9849 83.2488 30.8462C83.0871 30.7073 83.002 30.4887 83.002 30.1903V2.08567ZM98.3529 10.0189C98.3529 9.61527 98.2762 9.24111 98.1273 8.89216C97.9783 8.54322 97.7654 8.23632 97.493 7.96726C97.2205 7.69819 96.8928 7.48799 96.5139 7.33243C96.1308 7.17687 95.7178 7.1012 95.2666 7.1012H90.8903V12.9407H95.2027C95.6667 12.9407 96.0924 12.8693 96.4797 12.7306C96.8672 12.5918 97.1993 12.39 97.4717 12.1251C97.7442 11.8645 97.957 11.5534 98.1145 11.2002C98.2721 10.8471 98.3486 10.4519 98.3486 10.0231L98.3529 10.0189ZM99.4342 21.7147C99.4342 21.3111 99.3576 20.9076 99.2001 20.5082C99.0425 20.1046 98.8254 19.7472 98.5445 19.4319C98.2635 19.1166 97.9314 18.8602 97.5441 18.6583C97.1567 18.4565 96.7352 18.3557 96.2882 18.3557H90.8946V25.078H96.2882C96.7395 25.078 97.1524 24.9856 97.5356 24.7964C97.9187 24.6071 98.2507 24.3591 98.536 24.0438C98.8212 23.7285 99.0425 23.3712 99.2001 22.9676C99.3576 22.5639 99.4342 22.1478 99.4342 21.7189V21.7147Z" fill="white"/>
<path d="M111.008 2.08567C111.008 1.804 111.085 1.58118 111.233 1.41302C111.382 1.24485 111.608 1.16077 111.906 1.16077H125.074C126.474 1.16077 127.785 1.41722 129.006 1.93432C130.228 2.45143 131.297 3.15352 132.208 4.03639C133.119 4.92347 133.835 5.95768 134.357 7.14744C134.881 8.33722 135.141 9.59846 135.141 10.9438C135.141 11.8561 135.014 12.7263 134.762 13.5503C134.511 14.3744 134.162 15.1479 133.711 15.8668C133.264 16.5857 132.728 17.2373 132.111 17.8218C131.493 18.4062 130.816 18.9063 130.084 19.3226L135.324 29.0678C135.417 29.257 135.541 29.4756 135.69 29.7321C135.84 29.9884 135.916 30.2071 135.916 30.3963C135.916 30.6107 135.843 30.7747 135.703 30.8881C135.562 31.0017 135.367 31.0606 135.124 31.0606H128.134C127.904 31.0606 127.696 30.9932 127.513 30.8587C127.329 30.7242 127.21 30.5434 127.155 30.3164L122.2 21.1178H118.896V30.1987C118.896 30.7747 118.585 31.0648 117.96 31.0648H111.906C111.634 31.0648 111.417 30.9932 111.255 30.8545C111.093 30.7158 111.008 30.4972 111.008 30.1987V2.08567ZM126.968 11.0237C126.968 10.6201 126.891 10.2165 126.742 9.81707C126.593 9.41348 126.38 9.04772 126.112 8.71138C125.839 8.37506 125.512 8.09338 125.132 7.86636C124.753 7.63933 124.332 7.49218 123.869 7.42492C123.49 7.3997 123.132 7.37447 122.8 7.35345C122.468 7.33243 122.102 7.32402 121.71 7.32402H118.896V14.7107H122.647C122.893 14.7107 123.107 14.7023 123.298 14.6896C123.49 14.6771 123.698 14.656 123.928 14.6308C124.405 14.5761 124.831 14.4374 125.213 14.2188C125.593 13.9959 125.912 13.7227 126.172 13.3948C126.431 13.0668 126.627 12.6969 126.763 12.2891C126.899 11.8813 126.968 11.4609 126.968 11.0321V11.0237Z" fill="white"/>
<path d="M148.293 1.94242C148.305 1.86255 148.352 1.77425 148.424 1.68177C148.496 1.58928 148.591 1.50098 148.701 1.42111C148.808 1.34123 148.927 1.27817 149.046 1.22772C149.17 1.18147 149.284 1.15625 149.391 1.15625H154.611C154.84 1.15625 155.035 1.22772 155.202 1.36646C155.364 1.50939 155.487 1.63131 155.568 1.74063L156.078 2.88836L166.782 30.1438C166.892 30.4128 166.87 30.6314 166.721 30.7996C166.573 30.9678 166.313 31.0518 165.947 31.0518H160.098C159.783 31.0518 159.545 30.993 159.374 30.8795C159.203 30.7659 159.071 30.5726 158.978 30.3077C158.705 29.6224 158.441 28.9413 158.181 28.2645C157.922 27.5876 157.667 26.9066 157.407 26.2213H146.581C146.322 26.9066 146.062 27.5876 145.798 28.2645C145.534 28.9413 145.271 29.6224 145.014 30.3077C144.836 30.8038 144.491 31.0518 143.976 31.0518H137.965C137.706 31.0518 137.492 30.9845 137.322 30.85C137.151 30.7154 137.122 30.5137 137.229 30.2447L148.293 1.94242ZM152.001 10.5567C151.741 11.242 151.482 11.9777 151.217 12.7723C150.953 13.5626 150.689 14.3615 150.434 15.1686C150.174 15.9758 149.915 16.7703 149.651 17.5524C149.387 18.3386 149.122 19.0742 148.867 19.7553H155.125L152.004 10.5567H152.001Z" fill="white"/>
<path d="M169.155 2.04332C169.155 1.80368 169.231 1.59348 169.38 1.42111C169.529 1.24874 169.755 1.16045 170.053 1.16045H176.719C176.911 1.16045 177.107 1.2067 177.311 1.29919C177.516 1.39168 177.69 1.55564 177.843 1.78267C179.567 4.53217 181.282 7.24383 182.981 9.91345C184.68 12.583 186.399 15.2948 188.137 18.0442V1.9214C188.192 1.67756 188.299 1.49258 188.464 1.35804C188.626 1.22352 188.818 1.15625 189.035 1.15625H194.846C195.131 1.15625 195.369 1.23193 195.56 1.38748C195.753 1.54303 195.846 1.76165 195.846 2.04332V30.2656C195.846 30.5348 195.765 30.7323 195.599 30.8585C195.437 30.9845 195.212 31.0518 194.926 31.0518H188.426C188.247 31.0518 188.094 30.993 187.958 30.871C187.821 30.7492 187.681 30.5894 187.528 30.3876C185.718 27.4363 183.934 24.5143 182.168 21.6304C180.401 18.7463 178.609 15.8245 176.787 12.8731V30.1648C176.787 30.4591 176.719 30.6818 176.583 30.829C176.447 30.9761 176.204 31.0518 175.85 31.0518H170.061C169.75 31.0518 169.52 30.9678 169.38 30.7996C169.239 30.6314 169.167 30.4254 169.167 30.1857V2.04332H169.155Z" fill="white"/>
<path d="M227.123 16.1361C227.123 17.5572 226.939 18.9109 226.573 20.1931C226.208 21.4754 225.684 22.6694 225.003 23.775C224.322 24.8807 223.513 25.8855 222.567 26.7852C221.622 27.6849 220.576 28.4501 219.43 29.0806C218.281 29.7113 217.042 30.199 215.709 30.5394C214.377 30.88 212.997 31.0524 211.572 31.0524H201.521C201.278 31.0524 201.061 30.9978 200.87 30.8927C200.678 30.7876 200.584 30.5563 200.584 30.2074V2.08595C200.584 1.80426 200.661 1.57725 200.818 1.40067C200.975 1.2283 201.209 1.14001 201.521 1.14001H211.572C212.997 1.14001 214.373 1.31659 215.701 1.66133C217.025 2.01027 218.264 2.50635 219.409 3.14959C220.558 3.79281 221.605 4.56638 222.558 5.46606C223.513 6.36575 224.322 7.37054 224.994 8.48463C225.667 9.59872 226.19 10.8011 226.565 12.0876C226.939 13.374 227.127 14.7236 227.127 16.1319L227.123 16.1361ZM208.472 8.36692V23.8465H210.184C210.494 23.8465 210.801 23.8381 211.103 23.8171C211.401 23.7961 211.699 23.775 212.001 23.7456C213.018 23.6657 213.973 23.4219 214.854 23.01C215.735 22.6021 216.509 22.064 217.166 21.3997C217.825 20.7355 218.34 19.9535 218.714 19.0538C219.09 18.1541 219.276 17.1745 219.276 16.1151C219.276 14.9884 219.064 13.95 218.634 13.0041C218.204 12.0581 217.625 11.2383 216.893 10.5489C216.161 9.85937 215.301 9.32125 214.313 8.93867C213.325 8.5561 212.278 8.36271 211.163 8.36271H208.472V8.36692Z" fill="white"/>
<path d="M16.1424 0.61084C5.02285 0.61084 0.126709 7.86253 0.126709 16.0424C0.126709 24.2224 4.81212 31.3893 15.676 31.3893C26.5399 31.3893 31.6065 24.566 31.6065 16.0827C31.6065 7.59925 26.495 0.61084 16.1424 0.61084ZM23.8497 16.7922C20.6798 19.9963 16.9046 22.3347 12.3895 23.6065C11.4928 23.8609 10.5602 23.3968 10.2239 22.5355C8.61426 18.412 8.56943 14.0343 10.0177 9.41997C10.3046 8.50514 11.2596 7.97856 12.1877 8.22401C16.7835 9.43336 20.6439 11.4326 23.778 14.2352C24.5312 14.909 24.5626 16.0737 23.8497 16.7922Z" fill="white"/>
</g>
<defs>
<clipPath id="clip0_865_55">
<rect width="227" height="32" fill="white" transform="translate(0.126709)"/>
</clipPath>
</defs>
</svg>
