<svg width="150" height="32" viewBox="0 0 150 32" fill="none" xmlns="http://www.w3.org/2000/svg">
<g opacity="0.5" clip-path="url(#clip0_865_40)">
<path d="M41.3352 8.42322H44.328L51.1059 20.8225H51.1498V8.42322H53.3502V23.8236H50.533L43.5797 11.159H43.5357V23.8236H41.3353V8.42322" fill="white"/>
<path d="M55.2004 8.42322H63.8045V10.3643H57.4008V14.8651H63.2315V16.8074H57.4008V21.8815H63.8045V23.8238H55.2004V8.42335" fill="white"/>
<path d="M138.959 11.1586C137.88 10.4521 136.714 10.1 134.733 10.1C131.191 10.1 128.837 12.6804 128.837 16.1227C128.837 19.7408 131.433 22.1462 134.624 22.1462C136.141 22.1462 136.538 21.991 137.089 21.881V17.2043H133.853V15.394H139.289V23.4041C138.453 23.6902 137 24.0875 134.602 24.0875C129.739 24.0875 126.505 20.9546 126.505 16.0565C126.505 11.3125 129.937 8.15759 134.624 8.15759C136.868 8.15759 137.858 8.48883 139.134 8.93011L138.959 11.1585" fill="white"/>
<path d="M110.284 8.42322H108.084V23.8236H110.284V8.42322Z" fill="white"/>
<path d="M74.0293 8.31763H72.4699L70.0235 21.543L67.2513 8.31763H64.8037L68.5288 23.7146H71.4523L74.0512 10.2286" fill="white"/>
<path d="M74.0293 8.31763H75.5886L78.0362 21.543L80.8084 8.31763H83.256L79.5309 23.7146H76.6074L74.0085 10.2286" fill="white"/>
<path d="M84.5202 8.42322H88.6796C91.8699 8.42322 94.0702 9.4598 94.0702 12.3054C94.0702 14.4237 92.8377 15.4835 90.9018 15.9688V16.0128C92.9925 16.1888 94.4663 17.5567 94.4663 19.719C94.4663 23.029 91.738 23.8236 88.6136 23.8236H84.52L84.5202 8.42322ZM86.7206 22.0134H88.3712C90.3521 22.0134 92.1344 21.5942 92.1344 19.521C92.1344 17.1375 90.0437 16.8074 88.1517 16.8074H86.7206V22.0134ZM86.7206 14.9983H87.9311C90.0657 14.9983 91.8699 14.7991 91.8699 12.5268C91.8699 10.6957 90.3083 10.2324 89.0319 10.2324H86.7206V14.9982" fill="white"/>
<path d="M95.9554 8.42322H99.7187C102.755 8.42322 105.681 8.90848 105.681 12.5927C105.681 14.4677 104.295 15.7915 102.513 16.1008V16.1448C103.195 16.41 103.526 16.7412 104.01 17.6898L106.913 23.8236H104.406L102.051 18.4833C101.369 16.9835 100.643 16.9835 99.476 16.9835H98.1557V23.8235H95.9553L95.9554 8.42322ZM98.1559 15.0422H100.027C102.117 15.0422 103.349 14.1157 103.349 12.6367C103.349 11.2468 102.293 10.3643 100.268 10.3643H98.1559V15.0423" fill="white"/>
<path d="M112.437 8.42322H116.969C121.525 8.42322 125.155 11.2468 125.155 15.9907C125.155 21.1526 122.031 23.8236 116.969 23.8236H112.437V8.42322ZM114.637 21.8814H116.947C120.732 21.8814 122.823 20.0503 122.823 16.0789C122.823 12.4828 120.38 10.3646 117.212 10.3646H114.637V21.8814" fill="white"/>
<path d="M141.397 8.42322H150.001V10.3643H143.598V14.8651H149.428V16.8074H143.598V21.8815H150.001V23.8238H141.397V8.42335" fill="white"/>
<path d="M27.1815 4.64724C30.0912 7.54731 31.9137 11.5733 31.9137 15.9998C31.9137 24.8369 24.7698 32.0001 15.9565 32.0001C15.5926 32.0001 15.2114 31.9873 14.8511 31.9618L14.8476 31.961V4.82141H13.4615V31.8007C12.9383 31.7173 12.4023 31.6003 11.8999 31.4672V4.82097H10.5138V31.0385L10.5129 31.0394C9.98621 30.8471 9.45028 30.6166 8.95241 30.3722V4.82054H7.56633V29.6044L7.5698 29.607C7.03499 29.2734 6.49558 28.8959 6.00582 28.5044L6.00495 28.5035V4.8211H4.61887V27.2588C1.7878 24.3714 -0.000244141 20.3701 -0.000244141 16C-0.000244141 7.16424 7.1437 -0.000244141 15.957 -0.000244141C16.2146 -0.000244141 16.4907 0.00670337 16.7448 0.0182562V7.93194L18.1598 10.5483V0.148986L18.1606 0.149855C18.7185 0.227424 19.2614 0.335168 19.7512 0.454457V13.4813L21.1661 16.1011V0.875745H21.1696C21.7079 1.06221 22.2473 1.28574 22.7578 1.52778H22.7587V19.0416L24.1737 21.6533V2.29101C24.7212 2.6234 25.2606 3.00099 25.763 3.39474L25.7656 3.39213V24.5916L27.1806 27.2102V4.64439L27.1815 4.64724ZM16.7444 14.2079L23.8225 27.3103H25.435L16.7442 11.208L16.7444 14.2079ZM16.7444 20.5363L20.4082 27.3103H22.0277L16.7445 17.5213L16.7444 20.5363ZM18.7334 27.3103L16.7444 23.6678V27.3103H18.7299" fill="white"/>
</g>
<defs>
<clipPath id="clip0_865_40">
<rect width="150" height="32" fill="white"/>
</clipPath>
</defs>
</svg>
